<?xml version="1.0" encoding="iso-8859-1"?>
<!-- Generator: Adobe Illustrator 19.0.0, SVG Export Plug-In . SVG Version: 6.00 Build 0)  -->
<svg version="1.1" id="Layer_1" xmlns="http://www.w3.org/2000/svg" xmlns:xlink="http://www.w3.org/1999/xlink" x="0px" y="0px"
	 viewBox="0 0 512 512" style="enable-background:new 0 0 512 512;" xml:space="preserve">
<path style="fill:#224E7D;" d="M423.514,0.131c-48.79,0-88.485,39.694-88.485,88.484c0,48.791,39.694,88.485,88.485,88.485
	s88.485-39.694,88.485-88.485C512,39.825,472.305,0.131,423.514,0.131z"/>
<path style="fill:#1A3D61;" d="M423.514,29.627c43.764,0,80.188,31.944,87.233,73.736c0.809-4.8,1.252-9.721,1.252-14.748
	c0-48.79-39.694-88.484-88.485-88.484c-48.79,0-88.485,39.694-88.485,88.484c0,5.027,0.444,9.948,1.252,14.748
	C343.326,61.572,379.751,29.627,423.514,29.627z"/>
<path style="fill:#FFAE00;" d="M323.51,188.359c-35.794-35.794-83.383-55.506-134.002-55.506S91.3,152.565,55.506,188.359
	S0,271.742,0,322.361c0,50.619,19.713,98.21,55.506,134.002c35.794,35.794,83.383,55.506,134.002,55.506
	s98.21-19.713,134.002-55.506c35.794-35.794,55.506-83.383,55.506-134.002S359.304,224.152,323.51,188.359z"/>
<path style="fill:#DE9700;" d="M323.51,188.359c-35.754-35.754-83.279-55.46-133.835-55.504v379.012
	c50.556-0.043,98.082-19.75,133.835-55.504c35.794-35.794,55.506-83.383,55.506-134.002S359.304,224.152,323.51,188.359z"/>
<path style="fill:#224E7D;" d="M303.334,170.816c-32.649-24.629-72.21-37.963-113.826-37.963
	c-49.407,0-95.922,18.788-131.404,52.969c7.651,2.601,15.851,6.132,24.613,10.816c71.605,38.271,103.704,34.568,146.915,12.345
	C258.654,194.058,274.867,176.348,303.334,170.816z"/>
<path style="fill:#285B91;" d="M376.026,356.121L72.768,343.075L7.545,375.568c8.791,30.223,25.085,57.92,47.96,80.796
	c7.864,7.864,16.299,14.951,25.208,21.224c28.862-14.614,72.732-31.961,108.794-25.392c54.949,10.012,72.288,15.152,120.566,16.39
	c4.639-3.839,9.125-7.911,13.437-12.222C351.212,428.661,369.273,393.891,376.026,356.121z"/>
<path style="fill:#224E7D;" d="M240.743,297.764c-41.975-13.691-114.816-25.816-170.372,9.987
	C41.087,326.623,16.687,330.4,0.154,329.754c1.14,29.922,9.19,58.616,23.39,84.246c19.072-12.908,61.065-34.478,114.729-21.061
	c74.075,18.519,91.359,4.938,143.211-16.049c27.757-11.235,63.292-7.964,90.329-2.499c4.432-15.618,6.862-31.9,7.162-48.534
	C325.066,329.812,275.621,309.14,240.743,297.764z"/>
<path style="fill:#1A3D61;" d="M189.508,132.854v91.078c13.353-2.522,26.159-7.765,40.124-14.948
	c29.023-14.926,45.236-32.636,73.702-38.168C270.685,146.187,231.124,132.854,189.508,132.854z"/>
<path style="fill:#224E7D;" d="M190.47,348.138v104.234c54.187,9.895,71.611,14.983,119.604,16.214
	c4.639-3.839,9.125-7.911,13.437-12.222c27.703-27.701,45.762-62.473,52.516-100.243L190.47,348.138z"/>
<g>
	<path style="fill:#1A3D61;" d="M240.743,297.764c-14.135-4.61-31.772-9.039-51.068-11.524v115.269
		c35.255,1.646,54.662-9.585,91.809-24.621c27.757-11.235,63.292-7.964,90.329-2.499c4.432-15.618,6.862-31.9,7.162-48.534
		C325.066,329.812,275.621,309.14,240.743,297.764z"/>
	<path style="fill:#1A3D61;" d="M423.515,0.131V177.1c48.791,0,88.485-39.694,88.485-88.485C512,39.825,472.305,0.131,423.515,0.131
		z"/>
</g>
<g>
</g>
<g>
</g>
<g>
</g>
<g>
</g>
<g>
</g>
<g>
</g>
<g>
</g>
<g>
</g>
<g>
</g>
<g>
</g>
<g>
</g>
<g>
</g>
<g>
</g>
<g>
</g>
<g>
</g>
</svg>
